<?xml version="1.0" encoding="UTF-8" standalone="no"?>
<!DOCTYPE svg PUBLIC "-//W3C//DTD SVG 1.1//EN" "http://www.w3.org/Graphics/SVG/1.1/DTD/svg11.dtd">
<svg width="100%" height="100%" viewBox="0 0 1000 500" version="1.1" xmlns="http://www.w3.org/2000/svg" xmlns:xlink="http://www.w3.org/1999/xlink" xml:space="preserve" xmlns:serif="http://www.serif.com/" style="fill-rule:evenodd;clip-rule:evenodd;stroke-linejoin:round;stroke-miterlimit:1.41421;">
    <g id="ribbon1">
        <g transform="matrix(1.24786,0,0,1.09479,-40.0762,0)">
            <path d="M474.473,350.015L427.192,425.652L370.295,456.708L284.548,456.708L474.473,350.015Z" style="fill:url(#_Linear1);"/>
        </g>
        <g transform="matrix(1.24786,0,0,1.09479,-40.0762,0)">
            <path d="M474.473,350.015L427.192,425.652L59.363,203.692L102.637,53.413L474.473,350.015Z" style="fill:url(#_Linear2);"/>
        </g>
        <g transform="matrix(1.24786,0,0,1.09479,-40.0762,0)">
            <path d="M810.248,263.977L768.794,350.015L422.384,0L638.754,0L810.248,263.977Z" style="fill:url(#_Linear3);"/>
        </g>
        <g transform="matrix(1.24786,0,0,1.09479,-40.0762,0)">
            <path d="M768.794,350.015L810.248,263.977L102.637,53.413L59.363,135.186L59.363,203.692L768.794,350.015Z" style="fill:url(#_Linear4);"/>
        </g>
    </g>
    <defs>
        <linearGradient id="_Linear1" x1="0" y1="0" x2="1" y2="0" gradientUnits="userSpaceOnUse" gradientTransform="matrix(127.909,-62.6084,54.9285,145.792,319.007,456.708)"><stop offset="0" style="stop-color:rgb(175,28,62);stop-opacity:1"/><stop offset="1" style="stop-color:rgb(226,68,99);stop-opacity:1"/></linearGradient>
        <linearGradient id="_Linear2" x1="0" y1="0" x2="1" y2="0" gradientUnits="userSpaceOnUse" gradientTransform="matrix(388.372,254.326,-223.129,442.673,59.3625,135.186)"><stop offset="0" style="stop-color:rgb(174,78,166);stop-opacity:1"/><stop offset="1" style="stop-color:rgb(226,68,99);stop-opacity:1"/></linearGradient>
        <linearGradient id="_Linear3" x1="0" y1="0" x2="1" y2="0" gradientUnits="userSpaceOnUse" gradientTransform="matrix(254.593,301.072,-264.141,290.189,537.782,0)"><stop offset="0" style="stop-color:rgb(41,64,237);stop-opacity:1"/><stop offset="1" style="stop-color:rgb(92,162,240);stop-opacity:1"/></linearGradient>
        <linearGradient id="_Linear4" x1="0" y1="0" x2="1" y2="0" gradientUnits="userSpaceOnUse" gradientTransform="matrix(-727.719,-176.873,155.176,-829.466,787.082,312.058)"><stop offset="0" style="stop-color:rgb(92,162,240);stop-opacity:1"/><stop offset="1" style="stop-color:rgb(166,61,157);stop-opacity:1"/></linearGradient>
    </defs>
</svg>
